<svg width="270" height="264" viewBox="0 0 270 264" fill="none" xmlns="http://www.w3.org/2000/svg">
<path d="M172.969 12.5672H97.0307L35.5952 58.2495L12.1289 132.164L35.5952 206.079L97.0307 251.761H172.969L234.405 206.079L257.871 132.164L234.405 58.2495L172.969 12.5672Z" fill="#FFC26D"/>
<path d="M100.404 234.221L90.0487 226.014L83.5914 221.977L76.6368 215.384L61.4751 203.367L56.4822 199.714C56.4305 199.673 53.6556 197.169 53.605 197.127C52.5002 196.202 51.6792 194.969 51.2436 193.574L43.9161 170.124L40.1229 161.36L38.1718 151.74L32.7918 134.523C32.3873 133.227 32.3309 131.844 32.6283 130.519L37.6835 108.02L39.7633 96.0621L42.8625 84.9689L51.415 46.9035L35.5946 58.25L12.1289 132.164L35.5952 206.079L97.0307 251.76H172.969L177.771 240.76L161.173 239.634L152.886 239.613L144.427 238.498L127.055 237.32L120.034 237.384L113.637 236.41L104.433 235.786C102.968 235.687 101.565 235.142 100.404 234.221V234.221Z" fill="#FFB54E"/>
<path d="M270 132.164C270 125.3 264.57 119.737 257.871 119.737C256.897 119.737 255.949 119.855 255.041 120.077C249.708 121.383 246.27 126.299 246.27 132.164C246.27 139.028 251.172 144.051 257.871 144.051C263.595 144.051 268.394 140.528 269.668 135.063C269.885 134.133 270 133.163 270 132.164Z" fill="#5F6C75"/>
<path d="M237.832 132.164C237.832 125.3 232.402 119.737 225.703 119.737C224.729 119.737 223.781 119.855 222.873 120.077C217.54 121.383 214.102 126.299 214.102 132.164C214.102 139.028 219.004 144.051 225.703 144.051C231.427 144.051 236.226 140.528 237.5 135.063C237.717 134.133 237.832 133.163 237.832 132.164Z" fill="#5F6C75"/>
<path d="M200.918 132.164C200.918 125.3 195.488 119.737 188.789 119.737C187.815 119.737 186.867 119.855 185.959 120.077C180.626 121.383 177.188 126.299 177.188 132.164C177.188 139.028 182.09 144.051 188.789 144.051C194.513 144.051 199.312 140.528 200.586 135.063C200.803 134.133 200.918 133.163 200.918 132.164Z" fill="#5F6C75"/>
<path d="M93.3398 132.164C93.3398 125.3 87.9098 119.737 81.2109 119.737C80.2364 119.737 79.2893 119.855 78.3812 120.077C73.0477 121.383 69.6094 126.299 69.6094 132.164C69.6094 139.028 74.5121 144.051 81.2109 144.051C86.9353 144.051 91.7336 140.528 93.0081 135.063C93.2249 134.133 93.3398 133.163 93.3398 132.164Z" fill="#5F6C75"/>
<path d="M147.129 132.164C147.129 125.3 141.699 119.737 135 119.737C134.025 119.737 133.078 119.855 132.17 120.077C126.837 121.383 123.398 126.299 123.398 132.164C123.398 139.028 128.301 144.051 135 144.051C140.724 144.051 145.523 140.528 146.797 135.063C147.014 134.133 147.129 133.163 147.129 132.164Z" fill="#5F6C75"/>
<path d="M147.129 77.0523C147.129 70.1887 141.699 64.6252 135 64.6252C134.025 64.6252 133.078 64.7429 132.17 64.965C126.837 66.2715 123.398 71.1872 123.398 77.0523C123.398 83.9159 128.301 88.9392 135 88.9392C140.724 88.9392 145.523 85.4163 146.797 79.9516C147.014 79.0212 147.129 78.0508 147.129 77.0523Z" fill="#5F6C75"/>
<path d="M147.129 187.276C147.129 180.412 141.699 174.849 135 174.849C134.025 174.849 133.078 174.966 132.17 175.189C126.837 176.495 123.398 181.411 123.398 187.276C123.398 194.139 128.301 199.163 135 199.163C140.724 199.163 145.523 195.64 146.797 190.175C147.014 189.245 147.129 188.274 147.129 187.276Z" fill="#5F6C75"/>
<path d="M147.129 227.799C147.129 220.936 141.699 215.372 135 215.372C134.025 215.372 133.078 215.49 132.17 215.712C126.837 217.018 123.398 221.934 123.398 227.799C123.398 234.663 128.301 239.686 135 239.686C140.724 239.686 145.523 236.163 146.797 230.698C147.014 229.768 147.129 228.798 147.129 227.799Z" fill="#5F6C75"/>
<path d="M147.129 36.529C147.129 29.6654 141.699 24.1018 135 24.1018C134.025 24.1018 133.078 24.2196 132.17 24.4417C126.837 25.7481 123.398 30.6639 123.398 36.529C123.398 43.3925 128.301 48.4158 135 48.4158C140.724 48.4158 145.523 44.893 146.797 39.4283C147.014 38.4979 147.129 37.5275 147.129 36.529Z" fill="#5F6C75"/>
<path d="M246.797 206.187C246.797 199.323 241.367 193.76 234.668 193.76C233.693 193.76 232.746 193.877 231.838 194.099C226.505 195.406 223.066 200.322 223.066 206.187C223.066 213.05 227.969 218.074 234.668 218.074C240.392 218.074 245.191 214.551 246.465 209.086C246.682 208.156 246.797 207.185 246.797 206.187Z" fill="#5F6C75"/>
<path d="M209.355 195.921C209.355 189.057 203.925 183.494 197.227 183.494C196.252 183.494 195.305 183.611 194.397 183.833C189.063 185.14 185.625 190.056 185.625 195.921C185.625 202.784 190.528 207.808 197.227 207.808C202.951 207.808 207.749 204.285 209.024 198.82C209.241 197.89 209.355 196.919 209.355 195.921Z" fill="#5F6C75"/>
<path d="M84.375 195.921C84.375 189.057 78.9449 183.494 72.2461 183.494C71.2716 183.494 70.3245 183.611 69.4164 183.833C64.0828 185.139 60.6445 190.056 60.6445 195.921C60.6445 202.784 65.5472 207.808 72.2461 207.808C77.9704 207.808 82.7687 204.285 84.0433 198.82C84.26 197.89 84.375 196.919 84.375 195.921Z" fill="#5F6C75"/>
<path d="M209.355 67.867C209.355 61.0034 203.925 55.4399 197.227 55.4399C196.252 55.4399 195.305 55.5577 194.397 55.7797C189.063 57.0862 185.625 62.0019 185.625 67.867C185.625 74.7306 190.528 79.7539 197.227 79.7539C202.951 79.7539 207.749 76.231 209.024 70.7663C209.241 69.8359 209.355 68.8655 209.355 67.867Z" fill="#5F6C75"/>
<path d="M84.375 67.867C84.375 61.0034 78.9449 55.4399 72.2461 55.4399C71.2716 55.4399 70.3245 55.5577 69.4164 55.7797C64.0828 57.0857 60.6445 62.0019 60.6445 67.867C60.6445 74.7306 65.5472 79.7539 72.2461 79.7539C77.9704 79.7539 82.7687 76.231 84.0433 70.7663C84.26 69.8359 84.375 68.8655 84.375 67.867Z" fill="#5F6C75"/>
<path d="M47.9883 206.187C47.9883 199.323 42.5582 193.76 35.8594 193.76C34.8848 193.76 33.9377 193.877 33.0296 194.099C27.6961 195.405 24.2578 200.322 24.2578 206.187C24.2578 213.05 29.1605 218.074 35.8594 218.074C41.5837 218.074 46.382 214.551 47.6566 209.086C47.8733 208.156 47.9883 207.185 47.9883 206.187Z" fill="#5F6C75"/>
<path d="M185.098 251.573C185.098 244.709 179.668 239.146 172.969 239.146C171.994 239.146 171.047 239.263 170.139 239.486C164.805 240.792 161.367 245.708 161.367 251.573C161.367 258.436 166.27 263.46 172.969 263.46C178.693 263.46 183.491 259.937 184.766 254.472C184.983 253.542 185.098 252.571 185.098 251.573Z" fill="#5F6C75"/>
<path d="M109.16 251.573C109.16 244.709 103.73 239.146 97.0312 239.146C96.0567 239.146 95.1096 239.263 94.2015 239.486C88.868 240.791 85.4297 245.708 85.4297 251.573C85.4297 258.436 90.3324 263.46 97.0312 263.46C102.756 263.46 107.554 259.937 108.828 254.472C109.045 253.542 109.16 252.571 109.16 251.573Z" fill="#5F6C75"/>
<path d="M47.9883 58.1414C47.9883 51.2778 42.5582 45.7143 35.8594 45.7143C34.8848 45.7143 33.9377 45.8321 33.0296 46.0541C27.6961 47.3601 24.2578 52.2763 24.2578 58.1414C24.2578 65.005 29.1605 70.0283 35.8594 70.0283C41.5837 70.0283 46.382 66.5054 47.6566 61.0407C47.8733 60.1103 47.9883 59.1399 47.9883 58.1414Z" fill="#5F6C75"/>
<path d="M246.797 58.1414C246.797 51.2778 241.367 45.7143 234.668 45.7143C233.693 45.7143 232.746 45.8321 231.838 46.0541C226.505 47.3606 223.066 52.2763 223.066 58.1414C223.066 65.005 227.969 70.0283 234.668 70.0283C240.392 70.0283 245.191 66.5054 246.465 61.0407C246.682 60.1103 246.797 59.1399 246.797 58.1414Z" fill="#5F6C75"/>
<path d="M185.098 12.7553C185.098 5.89171 179.668 0.328125 172.969 0.328125C171.994 0.328125 171.047 0.445913 170.139 0.667981C164.805 1.97445 161.367 6.8902 161.367 12.7553C161.367 19.6189 166.27 24.6421 172.969 24.6421C178.693 24.6421 183.491 21.1193 184.766 15.6546C184.983 14.7242 185.098 13.7538 185.098 12.7553Z" fill="#5F6C75"/>
<path d="M109.16 12.7553C109.16 5.89171 103.73 0.328125 97.0312 0.328125C96.0567 0.328125 95.1096 0.445913 94.2015 0.667981C88.868 1.97391 85.4297 6.8902 85.4297 12.7553C85.4297 19.6189 90.3324 24.6421 97.0312 24.6421C102.756 24.6421 107.554 21.1193 108.828 15.6546C109.045 14.7242 109.16 13.7538 109.16 12.7553Z" fill="#5F6C75"/>
<path d="M24.2578 132.164C24.2578 125.3 18.8278 119.737 12.1289 119.737C11.1544 119.737 10.2073 119.855 9.29918 120.077C3.96563 121.383 0.527344 126.299 0.527344 132.164C0.527344 139.028 5.43006 144.051 12.1289 144.051C17.8532 144.051 22.6515 140.528 23.9261 135.063C24.1429 134.133 24.2578 133.163 24.2578 132.164V132.164Z" fill="#5F6C75"/>
<path d="M56.4258 132.164C56.4258 125.3 50.9957 119.737 44.2969 119.737C43.3223 119.737 42.3752 119.855 41.4671 120.077C36.1336 121.383 32.6953 126.299 32.6953 132.164C32.6953 139.028 37.598 144.051 44.2969 144.051C50.0212 144.051 54.8195 140.528 56.0941 135.063C56.3108 134.133 56.4258 133.163 56.4258 132.164Z" fill="#5F6C75"/>
<path d="M143.965 190.518C137.266 190.518 131.836 184.954 131.836 178.091C131.836 177.092 131.954 176.122 132.171 175.192C126.838 176.498 122.871 181.411 122.871 187.276C122.871 194.139 128.301 199.703 135 199.703C140.724 199.703 145.519 195.639 146.794 190.174C145.886 190.397 144.939 190.518 143.965 190.518Z" fill="#4E5A61"/>
<path d="M143.965 231.041C137.266 231.041 131.836 225.477 131.836 218.614C131.836 217.615 131.954 216.645 132.171 215.716C126.838 217.022 122.871 221.934 122.871 227.799C122.871 234.663 128.301 240.226 135 240.226C140.724 240.226 145.519 236.162 146.794 230.697C145.886 230.92 144.939 231.041 143.965 231.041Z" fill="#4E5A61"/>
<path d="M243.633 209.429C236.934 209.429 231.504 203.865 231.504 197.001C231.504 196.003 231.622 195.033 231.839 194.103C226.506 195.409 222.539 200.322 222.539 206.187C222.539 213.05 227.969 218.614 234.668 218.614C240.392 218.614 245.187 214.55 246.462 209.085C245.554 209.308 244.607 209.429 243.633 209.429Z" fill="#4E5A61"/>
<path d="M206.191 199.163C199.493 199.163 194.062 193.599 194.062 186.735C194.062 185.737 194.181 184.767 194.397 183.837C189.064 185.143 185.098 190.056 185.098 195.921C185.098 202.784 190.528 208.348 197.227 208.348C202.951 208.348 207.745 204.284 209.021 198.819C208.113 199.042 207.166 199.163 206.191 199.163Z" fill="#4E5A61"/>
<path d="M81.2109 199.163C74.5121 199.163 69.082 193.599 69.082 186.735C69.082 185.737 69.2002 184.767 69.4174 183.837C64.0839 185.143 60.1172 190.056 60.1172 195.921C60.1172 202.784 65.5472 208.348 72.2461 208.348C77.9704 208.348 82.765 204.284 84.0396 198.819C83.1321 199.042 82.1855 199.163 81.2109 199.163Z" fill="#4E5A61"/>
<path d="M44.8242 209.429C38.1254 209.429 32.6953 203.865 32.6953 197.001C32.6953 196.003 32.8134 195.033 33.0307 194.103C27.6971 195.409 23.7305 200.322 23.7305 206.187C23.7305 213.05 29.1605 218.614 35.8594 218.614C41.5837 218.614 46.3783 214.55 47.6529 209.085C46.7453 209.308 45.7988 209.429 44.8242 209.429Z" fill="#4E5A61"/>
<path d="M181.934 254.815C175.235 254.815 169.805 249.251 169.805 242.388C169.805 241.389 169.923 240.419 170.14 239.489C164.807 240.795 160.84 245.708 160.84 251.573C160.84 258.436 166.27 264 172.969 264C178.693 264 183.488 259.936 184.763 254.471C183.855 254.694 182.908 254.815 181.934 254.815Z" fill="#4E5A61"/>
<path d="M105.996 254.815C99.2972 254.815 93.8672 249.251 93.8672 242.388C93.8672 241.389 93.9853 240.419 94.2026 239.489C88.869 240.795 84.9023 245.708 84.9023 251.573C84.9023 258.436 90.3324 264 97.0313 264C102.756 264 107.55 259.936 108.825 254.471C107.917 254.694 106.971 254.815 105.996 254.815Z" fill="#4E5A61"/>
<path d="M143.965 80.2942C137.266 80.2942 131.836 74.7306 131.836 67.867C131.836 66.8685 131.954 65.8987 132.171 64.9688C126.838 66.2747 122.871 71.1872 122.871 77.0523C122.871 83.9159 128.301 89.4795 135 89.4795C140.724 89.4795 145.519 85.4153 146.794 79.9505C145.886 80.1732 144.939 80.2942 143.965 80.2942Z" fill="#4E5A61"/>
<path d="M206.191 71.1089C199.493 71.1089 194.062 65.5453 194.062 58.6817C194.062 57.6832 194.181 56.7134 194.397 55.7835C189.064 57.0894 185.098 62.0019 185.098 67.867C185.098 74.7306 190.528 80.2942 197.227 80.2942C202.951 80.2942 207.745 76.23 209.021 70.7653C208.113 70.9879 207.166 71.1089 206.191 71.1089Z" fill="#4E5A61"/>
<path d="M81.2109 71.1089C74.5121 71.1089 69.082 65.5453 69.082 58.6817C69.082 57.6832 69.2002 56.7134 69.4174 55.7835C64.0839 57.0894 60.1172 62.0019 60.1172 67.867C60.1172 74.7306 65.5472 80.2942 72.2461 80.2942C77.9704 80.2942 82.765 76.23 84.0396 70.7653C83.1321 70.9879 82.1855 71.1089 81.2109 71.1089Z" fill="#4E5A61"/>
<path d="M44.8242 61.3833C38.1254 61.3833 32.6953 55.8197 32.6953 48.9561C32.6953 47.9576 32.8134 46.9878 33.0307 46.0579C27.6971 47.3638 23.7305 52.2763 23.7305 58.1414C23.7305 65.005 29.1605 70.5686 35.8594 70.5686C41.5837 70.5686 46.3783 66.5043 47.6529 61.0396C46.7453 61.2622 45.7988 61.3833 44.8242 61.3833Z" fill="#4E5A61"/>
<path d="M243.633 61.3833C236.934 61.3833 231.504 55.8197 231.504 48.9561C231.504 47.9576 231.622 46.9878 231.839 46.0579C226.506 47.3638 222.539 52.2763 222.539 58.1414C222.539 65.005 227.969 70.5686 234.668 70.5686C240.392 70.5686 245.187 66.5043 246.462 61.0396C245.554 61.2622 244.607 61.3833 243.633 61.3833Z" fill="#4E5A61"/>
<path d="M143.965 39.7709C137.266 39.7709 131.836 34.2073 131.836 27.3437C131.836 26.3452 131.954 25.3753 132.171 24.4455C126.838 25.7514 122.871 30.6639 122.871 36.529C122.871 43.3926 128.301 48.9561 135 48.9561C140.724 48.9561 145.519 44.8919 146.794 39.4272C145.886 39.6498 144.939 39.7709 143.965 39.7709Z" fill="#4E5A61"/>
<path d="M181.934 15.9971C175.235 15.9971 169.805 10.4336 169.805 3.56998C169.805 2.57149 169.923 1.60163 170.14 0.671753C164.807 1.97769 160.84 6.8902 160.84 12.7553C160.84 19.6188 166.27 25.1824 172.969 25.1824C178.693 25.1824 183.488 21.1182 184.763 15.6535C183.855 15.8761 182.908 15.9971 181.934 15.9971V15.9971Z" fill="#4E5A61"/>
<path d="M105.996 15.9971C99.2972 15.9971 93.8672 10.4336 93.8672 3.56998C93.8672 2.57149 93.9853 1.60163 94.2026 0.671753C88.869 1.97769 84.9023 6.8902 84.9023 12.7553C84.9023 19.6188 90.3324 25.1824 97.0313 25.1824C102.756 25.1824 107.55 21.1182 108.825 15.6535C107.917 15.8761 106.971 15.9971 105.996 15.9971V15.9971Z" fill="#4E5A61"/>
<path d="M266.836 135.406C260.137 135.406 254.707 129.842 254.707 122.979C254.707 121.98 254.825 121.01 255.042 120.081C249.709 121.386 245.742 126.299 245.742 132.164C245.742 139.028 251.172 144.591 257.871 144.591C263.595 144.591 268.39 140.527 269.665 135.062C268.757 135.285 267.81 135.406 266.836 135.406Z" fill="#4E5A61"/>
<path d="M234.668 135.406C227.969 135.406 222.539 129.842 222.539 122.979C222.539 121.98 222.657 121.01 222.874 120.081C217.541 121.386 213.574 126.299 213.574 132.164C213.574 139.028 219.004 144.591 225.703 144.591C231.427 144.591 236.222 140.527 237.497 135.062C236.589 135.285 235.643 135.406 234.668 135.406Z" fill="#4E5A61"/>
<path d="M197.754 135.406C191.055 135.406 185.625 129.842 185.625 122.979C185.625 121.98 185.743 121.01 185.96 120.081C180.627 121.386 176.66 126.299 176.66 132.164C176.66 139.028 182.09 144.591 188.789 144.591C194.513 144.591 199.308 140.527 200.583 135.062C199.675 135.285 198.728 135.406 197.754 135.406Z" fill="#4E5A61"/>
<path d="M90.1758 135.406C83.4769 135.406 78.0469 129.842 78.0469 122.979C78.0469 121.98 78.165 121.01 78.3823 120.081C73.0487 121.386 69.082 126.299 69.082 132.164C69.082 139.028 74.5121 144.591 81.2109 144.591C86.9353 144.591 91.7299 140.527 93.0045 135.062C92.0969 135.285 91.1503 135.406 90.1758 135.406Z" fill="#4E5A61"/>
<path d="M143.965 135.406C137.266 135.406 131.836 129.842 131.836 122.979C131.836 121.98 131.954 121.01 132.171 120.081C126.838 121.386 122.871 126.299 122.871 132.164C122.871 139.028 128.301 144.591 135 144.591C140.724 144.591 145.519 140.527 146.794 135.062C145.886 135.285 144.939 135.406 143.965 135.406Z" fill="#4E5A61"/>
<path d="M21.0938 135.406C14.3949 135.406 8.96484 129.842 8.96484 122.979C8.96484 121.98 9.08297 121.01 9.30023 120.081C3.96668 121.386 0 126.299 0 132.164C0 139.028 5.43006 144.591 12.1289 144.591C17.8532 144.591 22.6478 140.527 23.9224 135.062C23.0149 135.285 22.0683 135.406 21.0938 135.406V135.406Z" fill="#4E5A61"/>
<path d="M53.2617 135.406C46.5629 135.406 41.1328 129.842 41.1328 122.979C41.1328 121.98 41.2509 121.01 41.4682 120.081C36.1346 121.386 32.168 126.299 32.168 132.164C32.168 139.028 37.598 144.591 44.2969 144.591C50.0212 144.591 54.8158 140.527 56.0904 135.062C55.1828 135.285 54.2363 135.406 53.2617 135.406Z" fill="#4E5A61"/>
<path d="M270 132.164C270 125.386 264.675 119.861 258.087 119.742L241.733 68.2328C244.797 65.9749 246.797 62.2943 246.797 58.1414C246.797 51.2892 241.356 45.7143 234.668 45.7143C231.993 45.7143 229.519 46.6079 227.511 48.1165L213.966 38.0445C212.197 36.7294 209.725 37.1325 208.442 38.9442C207.159 40.7558 207.551 43.2894 209.32 44.6039L222.995 54.7731C222.787 55.5301 222.647 56.3163 222.583 57.124L207.482 61.2455C205.445 57.9469 200.968 55.0157 196.267 55.4831L182.618 24.7491L194.499 33.5837C195.201 34.1057 196.014 34.3569 196.819 34.3569C198.042 34.3569 199.249 33.7766 200.023 32.6847C201.306 30.873 200.913 28.3395 199.145 27.0249L184.615 16.2203C184.927 15.1191 185.098 13.9575 185.098 12.7553C185.098 5.90306 179.657 0.328125 172.969 0.328125C167.733 0.328125 163.263 3.74451 161.568 8.51492H108.432C106.737 3.74451 102.266 0.328125 97.0312 0.328125C90.3435 0.328125 84.9023 5.90306 84.9023 12.7553C84.9023 13.9575 85.0732 15.1191 85.3854 16.2192L42.7496 47.922C40.7911 46.5318 38.417 45.7143 35.8594 45.7143C29.1716 45.7143 23.7305 51.2892 23.7305 58.1414C23.7305 62.0992 25.5482 65.6285 28.3706 67.9059L11.9132 119.742C5.32459 119.861 0 125.386 0 132.164C0 138.942 5.32512 144.467 11.9132 144.586L28.3706 196.423C25.5482 198.7 23.7305 202.229 23.7305 206.187C23.7305 213.039 29.1716 218.614 35.8594 218.614C38.417 218.614 40.7911 217.796 42.7496 216.406L56.2101 226.414C56.912 226.936 57.7246 227.188 58.5299 227.188C59.7538 227.188 60.9604 226.607 61.734 225.515C63.0171 223.704 62.6242 221.17 60.856 219.855L47.4409 209.881C47.7151 208.98 47.8886 208.033 47.9545 207.058L62.3705 203.123C64.5384 206.148 68.8426 208.841 73.4822 208.284L87.3819 239.58L75.7972 230.965C74.0285 229.65 71.5563 230.053 70.2733 231.865C68.9903 233.677 69.3831 236.21 71.1513 237.525L85.3854 248.109C85.0732 249.209 84.9023 250.371 84.9023 251.573C84.9023 258.425 90.3435 264 97.0312 264C102.266 264 106.737 260.584 108.432 255.813H161.568C163.263 260.584 167.733 264 172.969 264C179.657 264 185.098 258.425 185.098 251.573C185.098 250.371 184.927 249.209 184.615 248.109L227.511 216.212C229.519 217.72 231.993 218.614 234.668 218.614C241.356 218.614 246.797 213.039 246.797 206.187C246.797 202.034 244.797 198.353 241.733 196.095L258.087 144.586C264.675 144.467 270 138.942 270 132.164ZM246.408 128.112H237.167C236.089 124.922 233.78 122.319 230.822 120.902L236.156 76.8632L250.566 122.252C248.665 123.726 247.202 125.76 246.408 128.112ZM83.1727 190.528C82.0594 188.17 80.2401 186.225 77.9973 184.982L83.6251 144.343C84.6418 144.132 85.6127 143.789 86.5202 143.334L124.099 181.832C123.668 182.734 123.341 183.697 123.133 184.706L83.1727 190.528ZM45.9047 65.0979L60.1694 68.9909C60.4579 72.2716 61.9961 75.1872 64.2916 77.236L46.7332 116.924L40.9783 69.4037C42.9743 68.4473 44.6776 66.9517 45.9047 65.0979V65.0979ZM186.597 73.8445C187.822 76.1235 189.725 77.9676 192.026 79.0915L186.316 119.998C185.332 120.208 184.392 120.54 183.51 120.978L145.904 82.4906C146.329 81.5996 146.652 80.6486 146.86 79.6545L186.597 73.8445ZM225.703 136.487C223.377 136.487 221.484 134.547 221.484 132.164C221.484 129.781 223.377 127.842 225.703 127.842C228.029 127.842 229.922 129.781 229.922 132.164C229.922 134.547 228.029 136.487 225.703 136.487ZM214.24 128.112H200.252C199.206 125.014 196.998 122.469 194.163 121.027L199.479 82.9444L217.144 123.368C215.851 124.689 214.849 126.307 214.24 128.112V128.112ZM186.338 190.453L146.866 184.704C146.659 183.699 146.333 182.738 145.903 181.838L183.509 143.35C184.408 143.798 185.369 144.134 186.375 144.343L191.967 184.724C189.524 185.934 187.536 187.959 186.338 190.453V190.453ZM92.1138 137.604C92.3273 137.156 92.5135 136.692 92.6743 136.216H123.537C124.752 139.813 127.534 142.664 131.045 143.909V175.531C130.582 175.695 130.131 175.886 129.695 176.104L92.1138 137.604ZM55.7603 128.112C55.1201 126.215 54.0438 124.527 52.6542 123.171L70.5048 82.8228L75.8373 121.027C73.0018 122.469 70.7938 125.014 69.7475 128.112H55.7603ZM44.2969 127.842C46.623 127.842 48.5156 129.781 48.5156 132.164C48.5156 134.547 46.623 136.487 44.2969 136.487C41.9708 136.487 40.0781 134.547 40.0781 132.164C40.0781 129.781 41.9708 127.842 44.2969 127.842V127.842ZM123.127 79.5929C123.334 80.6113 123.664 81.5845 124.099 82.4954L111.97 94.9215C110.425 96.5041 110.425 99.07 111.97 100.653C112.742 101.444 113.754 101.84 114.767 101.84C115.779 101.84 116.791 101.444 117.563 100.653L129.694 88.2249C130.131 88.4432 130.582 88.6334 131.045 88.7976V120.419C127.534 121.664 124.752 124.515 123.537 128.112H92.6738C92.513 127.636 92.3268 127.173 92.1132 126.725L104.552 113.982C106.097 112.399 106.097 109.834 104.553 108.252C103.009 106.669 100.504 106.668 98.9597 108.251L86.5208 120.994C85.6306 120.548 84.6798 120.21 83.6847 119.998L77.9393 78.8364C80.0466 77.6834 81.7852 75.9133 82.9216 73.7613L123.127 79.5929ZM177.902 126.694C177.682 127.151 177.49 127.625 177.326 128.112H146.463C145.248 124.515 142.466 121.664 138.955 120.419V88.7971C139.42 88.6323 139.873 88.441 140.311 88.2216L177.902 126.694ZM140.311 176.106C139.873 175.887 139.42 175.695 138.955 175.531V143.909C142.466 142.664 145.248 139.813 146.463 136.216H177.326C177.49 136.703 177.682 137.176 177.902 137.634L140.311 176.106ZM135 127.842C137.326 127.842 139.219 129.781 139.219 132.164C139.219 134.547 137.326 136.487 135 136.487C132.674 136.487 130.781 134.547 130.781 132.164C130.781 129.781 132.674 127.842 135 127.842ZM188.789 136.487C186.463 136.487 184.57 134.547 184.57 132.164C184.57 129.781 186.463 127.842 188.789 127.842C191.115 127.842 193.008 129.781 193.008 132.164C193.008 134.547 191.115 136.487 188.789 136.487ZM81.2109 136.487C78.8848 136.487 76.9922 134.547 76.9922 132.164C76.9922 129.781 78.8848 127.842 81.2109 127.842C83.5371 127.842 85.4297 129.781 85.4297 132.164C85.4297 134.547 83.5371 136.487 81.2109 136.487ZM135 81.3748C132.674 81.3748 130.781 79.4356 130.781 77.0523C130.781 74.669 132.674 72.7298 135 72.7298C137.326 72.7298 139.219 74.669 139.219 77.0523C139.219 79.4356 137.326 81.3748 135 81.3748ZM139.219 36.529C139.219 38.9123 137.326 40.8515 135 40.8515C132.674 40.8515 130.781 38.9123 130.781 36.529C130.781 34.1457 132.674 32.2065 135 32.2065C137.326 32.2065 139.219 34.1457 139.219 36.529ZM126.637 45.5165C127.884 46.7355 129.383 47.6848 131.045 48.2743V65.3076C128.02 66.3801 125.534 68.6451 124.127 71.553L86.0245 66.0262L126.637 45.5165ZM72.2461 63.5445C74.5722 63.5445 76.4648 65.4837 76.4648 67.867C76.4648 70.2503 74.5722 72.1895 72.2461 72.1895C69.92 72.1895 68.0273 70.2503 68.0273 67.867C68.0273 65.4837 69.92 63.5445 72.2461 63.5445ZM55.7603 136.216H69.7481C70.7875 139.294 72.9749 141.826 75.784 143.273L70.4932 181.478L52.6547 141.157C54.0438 139.801 55.1196 138.113 55.7603 136.216V136.216ZM135 182.953C137.326 182.953 139.219 184.892 139.219 187.276C139.219 189.659 137.326 191.598 135 191.598C132.674 191.598 130.781 189.659 130.781 187.276C130.781 184.892 132.674 182.953 135 182.953ZM130.781 227.799C130.781 225.416 132.674 223.477 135 223.477C137.326 223.477 139.219 225.416 139.219 227.799C139.219 230.182 137.326 232.122 135 232.122C132.674 232.122 130.781 230.182 130.781 227.799ZM143.364 218.812C142.116 217.593 140.618 216.643 138.955 216.054V199.021C141.99 197.945 144.482 195.669 145.886 192.748L183.987 198.296L143.364 218.812ZM197.227 200.243C194.9 200.243 193.008 198.304 193.008 195.921C193.008 193.537 194.9 191.598 197.227 191.598C199.553 191.598 201.445 193.537 201.445 195.921C201.445 198.304 199.553 200.243 197.227 200.243ZM194.216 143.273C197.026 141.826 199.213 139.294 200.252 136.216H214.239C214.87 138.084 215.923 139.751 217.283 141.096L199.502 181.44L194.216 143.273ZM229.114 69.1838L223.259 117.53L205.515 76.9275C207.593 74.9316 208.987 72.1987 209.292 69.1384L224.545 64.9758C225.688 66.7475 227.263 68.202 229.114 69.1838ZM145.9 71.6076C144.498 68.6726 141.999 66.3866 138.955 65.307V48.2737C140.618 47.6842 142.116 46.7349 143.364 45.516L183.999 66.037L145.9 71.6076ZM142.781 27.0055C140.673 25.1949 137.959 24.1018 135 24.1018C132.046 24.1018 129.337 25.19 127.232 26.9946L111.099 16.6196H158.978L142.781 27.0055ZM104.899 22.2015L123.14 33.9322C123.032 35.4208 122.694 34.76 122.999 38.3185L81.1577 59.4484C81.048 59.3263 80.9367 59.2053 80.8223 59.088L95.9054 25.1273C98.57 25.4045 102.208 24.5146 104.899 22.2015V22.2015ZM73.71 55.5333C69.8087 54.9736 64.5036 57.0662 62.0673 61.1218L47.9551 57.2704C47.8886 56.2946 47.7156 55.3486 47.4409 54.4473L87.3819 24.748L73.71 55.5333ZM39.2402 120.873C36.2528 122.283 33.9182 124.9 32.8335 128.112H23.5923C22.7981 125.76 21.3353 123.726 19.4347 122.252L33.8924 76.7135L39.2402 120.873ZM23.5923 136.216H32.834C33.9114 139.406 36.2211 142.01 39.179 143.427L33.8449 187.465L19.4347 142.076C21.3353 140.602 22.7981 138.568 23.5923 136.216V136.216ZM40.9161 194.895L46.6815 147.288L64.1197 186.704C61.7926 188.859 60.2838 191.925 60.1314 195.347L45.9047 199.23C44.6655 197.357 42.9395 195.851 40.9161 194.895V194.895ZM124.114 192.749C125.519 195.67 128.011 197.945 131.045 199.021V216.054C129.383 216.644 127.884 217.593 126.637 218.812L86.0203 198.3L124.114 192.749ZM127.219 237.323C129.327 239.133 132.041 240.226 135 240.226C137.954 240.226 140.663 239.138 142.769 237.333L158.901 247.708H111.022L127.219 237.323ZM165.101 242.127L146.86 230.396C147.035 229.558 147.129 228.69 147.129 227.799C147.129 227.191 147.084 226.594 147.001 226.01L188.837 204.882C188.952 204.996 189.069 205.107 189.188 205.216L174.095 239.201C171.43 238.924 167.792 239.814 165.101 242.127V242.127ZM196.499 208.324C200.162 208.625 204.863 206.532 207.185 203.002L222.583 207.204C222.647 208.012 222.787 208.798 222.995 209.555L182.617 239.58L196.499 208.324ZM235.05 178.534C234.779 176.313 232.803 174.736 230.634 175.015C228.467 175.293 226.93 177.318 227.2 179.539L229.105 195.149C227.258 196.13 225.687 197.583 224.546 199.352L209.334 195.201C209.156 192.016 207.801 189.149 205.709 187.049L223.259 147.23L224.91 160.763C225.056 162.171 226.325 164.206 228.631 164.308C231.114 164.417 233.043 162.087 232.735 159.561L230.77 143.451C233.753 142.04 236.083 139.425 237.167 136.216H246.408C247.202 138.568 248.665 140.602 250.566 142.076L236.144 187.501L235.05 178.534ZM262.09 132.164C262.09 134.547 260.197 136.487 257.871 136.487C255.545 136.487 253.652 134.547 253.652 132.164C253.652 129.781 255.545 127.842 257.871 127.842C260.197 127.842 262.09 129.781 262.09 132.164ZM238.887 58.1414C238.887 60.5247 236.994 62.4639 234.668 62.4639C232.342 62.4639 230.449 60.5247 230.449 58.1414C230.449 55.7581 232.342 53.8189 234.668 53.8189C236.994 53.8189 238.887 55.7581 238.887 58.1414ZM201.445 67.867C201.445 70.2503 199.553 72.1895 197.227 72.1895C194.9 72.1895 193.008 70.2503 193.008 67.867C193.008 65.4837 194.9 63.5445 197.227 63.5445C199.553 63.5445 201.445 65.4837 201.445 67.867ZM188.484 59.2669L147.002 38.3185C146.945 37.8187 147.393 37.8938 146.865 33.9484L165.136 22.2329C166.958 23.782 170.538 25.5385 174.095 25.1273L189.018 58.7282C188.834 58.9016 188.657 59.0821 188.484 59.2669V59.2669ZM172.969 8.43279C175.295 8.43279 177.188 10.372 177.188 12.7553C177.188 15.1386 175.295 17.0778 172.969 17.0778C170.643 17.0778 168.75 15.1386 168.75 12.7553C168.75 10.372 170.643 8.43279 172.969 8.43279ZM97.0312 8.43279C99.3574 8.43279 101.25 10.372 101.25 12.7553C101.25 15.1386 99.3574 17.0778 97.0312 17.0778C94.7051 17.0778 92.8125 15.1386 92.8125 12.7553C92.8125 10.372 94.7051 8.43279 97.0312 8.43279ZM35.8594 53.8189C38.1855 53.8189 40.0781 55.7581 40.0781 58.1414C40.0781 60.5247 38.1855 62.4639 35.8594 62.4639C33.5333 62.4639 31.6406 60.5247 31.6406 58.1414C31.6406 55.7581 33.5333 53.8189 35.8594 53.8189ZM7.91016 132.164C7.91016 129.781 9.80279 127.842 12.1289 127.842C14.455 127.842 16.3477 129.781 16.3477 132.164C16.3477 134.547 14.455 136.487 12.1289 136.487C9.80279 136.487 7.91016 134.547 7.91016 132.164ZM31.6406 206.187C31.6406 203.803 33.5333 201.864 35.8594 201.864C38.1855 201.864 40.0781 203.803 40.0781 206.187C40.0781 208.57 38.1855 210.509 35.8594 210.509C33.5333 210.509 31.6406 208.57 31.6406 206.187ZM68.0273 195.921C68.0273 193.537 69.92 191.598 72.2461 191.598C74.5722 191.598 76.4648 193.537 76.4648 195.921C76.4648 198.304 74.5722 200.243 72.2461 200.243C69.92 200.243 68.0273 198.304 68.0273 195.921ZM80.8154 204.707L122.999 226.01C122.916 226.594 122.871 227.191 122.871 227.799C122.871 228.684 122.963 229.547 123.136 230.38L104.864 242.096C102.749 240.258 100.015 239.146 97.0312 239.146C96.6516 239.146 96.2761 239.166 95.9054 239.201L80.6551 204.864C80.7079 204.811 80.7632 204.761 80.8154 204.707V204.707ZM97.0312 255.895C94.7051 255.895 92.8125 253.956 92.8125 251.573C92.8125 249.19 94.7051 247.25 97.0312 247.25C99.3574 247.25 101.25 249.19 101.25 251.573C101.25 253.956 99.3574 255.895 97.0312 255.895ZM172.969 255.895C170.643 255.895 168.75 253.956 168.75 251.573C168.75 249.19 170.643 247.25 172.969 247.25C175.295 247.25 177.188 249.19 177.188 251.573C177.188 253.956 175.295 255.895 172.969 255.895ZM234.668 210.509C232.342 210.509 230.449 208.57 230.449 206.187C230.449 203.803 232.342 201.864 234.668 201.864C236.994 201.864 238.887 203.803 238.887 206.187C238.887 208.57 236.994 210.509 234.668 210.509Z" fill="black"/>
</svg>
