<svg id="Capa_1" enable-background="new 0 0 512 512" height="250" viewBox="0 0 512 512" width="250" xmlns="http://www.w3.org/2000/svg"><g><g><path d="m328.001 34.652h-144.002l-116.5 84.548-44.499 136.8 44.499 136.801 116.5 84.547h144.002l116.5-84.547 44.499-136.801-44.499-136.8z" fill="#ffc26d"/><path d="m190.395 444.886-19.636-15.189-12.245-7.472-13.188-12.202-28.751-22.241-9.468-6.761c-.098-.076-5.36-4.711-5.456-4.789-2.095-1.711-3.652-3.994-4.478-6.575l-13.895-43.402-7.193-16.219-3.7-17.805-10.202-31.866c-.767-2.397-.874-4.957-.31-7.409l9.586-41.642 3.944-22.131 5.877-20.531 16.218-70.451-30 21-44.498 136.799 44.499 136.8 116.5 84.547h144.002l9.105-20.359-31.475-2.084-15.713-.04-16.041-2.062-32.944-2.181-13.313.119-12.131-1.803-17.454-1.155c-2.778-.184-5.438-1.192-7.64-2.896z" fill="#ffb54e"/><g fill="#5f6c75"><path d="m512 256c0-12.703-10.297-23-23-23-1.848 0-3.644.218-5.366.629-10.114 2.418-16.634 11.516-16.634 22.371 0 12.703 9.297 22 22 22 10.855 0 19.954-6.52 22.371-16.634.411-1.722.629-3.518.629-5.366z"/><path d="m451 256c0-12.703-10.297-23-23-23-1.848 0-3.644.218-5.366.629-10.114 2.418-16.634 11.516-16.634 22.371 0 12.703 9.297 22 22 22 10.855 0 19.954-6.52 22.371-16.634.411-1.722.629-3.518.629-5.366z"/><path d="m381 256c0-12.703-10.297-23-23-23-1.848 0-3.644.218-5.366.629-10.114 2.418-16.634 11.516-16.634 22.371 0 12.703 9.297 22 22 22 10.855 0 19.954-6.52 22.371-16.634.411-1.722.629-3.518.629-5.366z"/><path d="m177 256c0-12.703-10.297-23-23-23-1.848 0-3.644.218-5.366.629-10.114 2.417-16.634 11.516-16.634 22.371 0 12.703 9.297 22 22 22 10.855 0 19.954-6.52 22.371-16.634.411-1.722.629-3.518.629-5.366z"/><path d="m279 256c0-12.703-10.297-23-23-23-1.848 0-3.644.218-5.366.629-10.114 2.418-16.634 11.516-16.634 22.371 0 12.703 9.297 22 22 22 10.855 0 19.954-6.52 22.371-16.634.411-1.722.629-3.518.629-5.366z"/><path d="m279 154c0-12.703-10.297-23-23-23-1.848 0-3.644.218-5.366.629-10.114 2.418-16.634 11.516-16.634 22.371 0 12.703 9.297 22 22 22 10.855 0 19.954-6.52 22.371-16.634.411-1.722.629-3.518.629-5.366z"/><path d="m279 358c0-12.703-10.297-23-23-23-1.848 0-3.644.218-5.366.629-10.114 2.418-16.634 11.516-16.634 22.371 0 12.703 9.297 22 22 22 10.855 0 19.954-6.52 22.371-16.634.411-1.722.629-3.518.629-5.366z"/><path d="m279 433c0-12.703-10.297-23-23-23-1.848 0-3.644.218-5.366.629-10.114 2.418-16.634 11.516-16.634 22.371 0 12.703 9.297 22 22 22 10.855 0 19.954-6.52 22.371-16.634.411-1.722.629-3.518.629-5.366z"/><path d="m279 79c0-12.703-10.297-23-23-23-1.848 0-3.644.218-5.366.629-10.114 2.418-16.634 11.516-16.634 22.371 0 12.703 9.297 22 22 22 10.855 0 19.954-6.52 22.371-16.634.411-1.722.629-3.518.629-5.366z"/><path d="m468 393c0-12.703-10.297-23-23-23-1.848 0-3.644.218-5.366.629-10.114 2.418-16.634 11.516-16.634 22.371 0 12.703 9.297 22 22 22 10.855 0 19.954-6.52 22.371-16.634.411-1.722.629-3.518.629-5.366z"/><path d="m397 374c0-12.703-10.297-23-23-23-1.848 0-3.644.218-5.366.629-10.114 2.418-16.634 11.516-16.634 22.371 0 12.703 9.297 22 22 22 10.855 0 19.954-6.52 22.371-16.634.411-1.722.629-3.518.629-5.366z"/><path d="m160 374c0-12.703-10.297-23-23-23-1.848 0-3.644.218-5.366.629-10.114 2.417-16.634 11.516-16.634 22.371 0 12.703 9.297 22 22 22 10.855 0 19.954-6.52 22.371-16.634.411-1.722.629-3.518.629-5.366z"/><path d="m397 137c0-12.703-10.297-23-23-23-1.848 0-3.644.218-5.366.629-10.114 2.418-16.634 11.516-16.634 22.371 0 12.703 9.297 22 22 22 10.855 0 19.954-6.52 22.371-16.634.411-1.722.629-3.518.629-5.366z"/><path d="m160 137c0-12.703-10.297-23-23-23-1.848 0-3.644.218-5.366.629-10.114 2.417-16.634 11.516-16.634 22.371 0 12.703 9.297 22 22 22 10.855 0 19.954-6.52 22.371-16.634.411-1.722.629-3.518.629-5.366z"/><path d="m91 393c0-12.703-10.297-23-23-23-1.848 0-3.644.218-5.366.629-10.114 2.417-16.634 11.516-16.634 22.371 0 12.703 9.297 22 22 22 10.855 0 19.954-6.52 22.371-16.634.411-1.722.629-3.518.629-5.366z"/><path d="m351 477c0-12.703-10.297-23-23-23-1.848 0-3.644.218-5.366.629-10.114 2.418-16.634 11.516-16.634 22.371 0 12.703 9.297 22 22 22 10.855 0 19.954-6.52 22.371-16.634.411-1.722.629-3.518.629-5.366z"/><path d="m207 477c0-12.703-10.297-23-23-23-1.848 0-3.644.218-5.366.629-10.114 2.417-16.634 11.516-16.634 22.371 0 12.703 9.297 22 22 22 10.855 0 19.954-6.52 22.371-16.634.411-1.722.629-3.518.629-5.366z"/><path d="m91 119c0-12.703-10.297-23-23-23-1.848 0-3.644.218-5.366.629-10.114 2.417-16.634 11.516-16.634 22.371 0 12.703 9.297 22 22 22 10.855 0 19.954-6.52 22.371-16.634.411-1.722.629-3.518.629-5.366z"/><path d="m468 119c0-12.703-10.297-23-23-23-1.848 0-3.644.218-5.366.629-10.114 2.418-16.634 11.516-16.634 22.371 0 12.703 9.297 22 22 22 10.855 0 19.954-6.52 22.371-16.634.411-1.722.629-3.518.629-5.366z"/><path d="m351 35c0-12.703-10.297-23-23-23-1.848 0-3.644.218-5.366.629-10.114 2.418-16.634 11.516-16.634 22.371 0 12.703 9.297 22 22 22 10.855 0 19.954-6.52 22.371-16.634.411-1.722.629-3.518.629-5.366z"/><path d="m207 35c0-12.703-10.297-23-23-23-1.848 0-3.644.218-5.366.629-10.114 2.417-16.634 11.516-16.634 22.371 0 12.703 9.297 22 22 22 10.855 0 19.954-6.52 22.371-16.634.411-1.722.629-3.518.629-5.366z"/><path d="m46 256c0-12.703-10.297-23-23-23-1.848 0-3.644.218-5.366.629-10.114 2.417-16.634 11.516-16.634 22.371 0 12.703 9.297 22 22 22 10.855 0 19.954-6.52 22.371-16.634.411-1.722.629-3.518.629-5.366z"/><path d="m107 256c0-12.703-10.297-23-23-23-1.848 0-3.644.218-5.366.629-10.114 2.417-16.634 11.516-16.634 22.371 0 12.703 9.297 22 22 22 10.855 0 19.954-6.52 22.371-16.634.411-1.722.629-3.518.629-5.366z"/></g><g fill="#4e5a61"><path d="m273 364c-12.703 0-23-10.297-23-23 0-1.848.224-3.643.635-5.364-10.113 2.417-17.635 11.509-17.635 22.364 0 12.703 10.297 23 23 23 10.855 0 19.947-7.522 22.365-17.636-1.722.412-3.517.636-5.365.636z"/><path d="m273 439c-12.703 0-23-10.297-23-23 0-1.848.224-3.643.635-5.364-10.113 2.417-17.635 11.509-17.635 22.364 0 12.703 10.297 23 23 23 10.855 0 19.947-7.522 22.365-17.636-1.722.412-3.517.636-5.365.636z"/><path d="m462 399c-12.703 0-23-10.297-23-23 0-1.848.224-3.643.635-5.364-10.113 2.417-17.635 11.509-17.635 22.364 0 12.703 10.297 23 23 23 10.855 0 19.947-7.522 22.365-17.636-1.722.412-3.517.636-5.365.636z"/><path d="m391 380c-12.703 0-23-10.297-23-23 0-1.848.224-3.643.635-5.364-10.113 2.417-17.635 11.509-17.635 22.364 0 12.703 10.297 23 23 23 10.855 0 19.947-7.522 22.365-17.636-1.722.412-3.517.636-5.365.636z"/><path d="m154 380c-12.703 0-23-10.297-23-23 0-1.848.224-3.643.636-5.364-10.114 2.417-17.636 11.509-17.636 22.364 0 12.703 10.297 23 23 23 10.855 0 19.947-7.522 22.364-17.636-1.721.412-3.516.636-5.364.636z"/><path d="m85 399c-12.703 0-23-10.297-23-23 0-1.848.224-3.643.636-5.364-10.114 2.417-17.636 11.509-17.636 22.364 0 12.703 10.297 23 23 23 10.855 0 19.947-7.522 22.364-17.636-1.721.412-3.516.636-5.364.636z"/><path d="m345 483c-12.703 0-23-10.297-23-23 0-1.848.224-3.643.635-5.364-10.113 2.417-17.635 11.509-17.635 22.364 0 12.703 10.297 23 23 23 10.855 0 19.947-7.522 22.365-17.636-1.722.412-3.517.636-5.365.636z"/><path d="m201 483c-12.703 0-23-10.297-23-23 0-1.848.224-3.643.636-5.364-10.114 2.417-17.636 11.509-17.636 22.364 0 12.703 10.297 23 23 23 10.855 0 19.947-7.522 22.364-17.636-1.721.412-3.516.636-5.364.636z"/><path d="m273 160c-12.703 0-23-10.297-23-23 0-1.848.224-3.643.635-5.364-10.113 2.417-17.635 11.509-17.635 22.364 0 12.703 10.297 23 23 23 10.855 0 19.947-7.522 22.365-17.636-1.722.412-3.517.636-5.365.636z"/><path d="m391 143c-12.703 0-23-10.297-23-23 0-1.848.224-3.643.635-5.364-10.113 2.417-17.635 11.509-17.635 22.364 0 12.703 10.297 23 23 23 10.855 0 19.947-7.522 22.365-17.636-1.722.412-3.517.636-5.365.636z"/><path d="m154 143c-12.703 0-23-10.297-23-23 0-1.848.224-3.643.636-5.364-10.114 2.417-17.636 11.509-17.636 22.364 0 12.703 10.297 23 23 23 10.855 0 19.947-7.522 22.364-17.636-1.721.412-3.516.636-5.364.636z"/><path d="m85 125c-12.703 0-23-10.297-23-23 0-1.848.224-3.643.636-5.364-10.114 2.417-17.636 11.509-17.636 22.364 0 12.703 10.297 23 23 23 10.855 0 19.947-7.522 22.364-17.636-1.721.412-3.516.636-5.364.636z"/><path d="m462 125c-12.703 0-23-10.297-23-23 0-1.848.224-3.643.635-5.364-10.113 2.417-17.635 11.509-17.635 22.364 0 12.703 10.297 23 23 23 10.855 0 19.947-7.522 22.365-17.636-1.722.412-3.517.636-5.365.636z"/><path d="m273 85c-12.703 0-23-10.297-23-23 0-1.848.224-3.643.635-5.364-10.113 2.417-17.635 11.509-17.635 22.364 0 12.703 10.297 23 23 23 10.855 0 19.947-7.522 22.365-17.636-1.722.412-3.517.636-5.365.636z"/><path d="m345 41c-12.703 0-23-10.297-23-23 0-1.848.224-3.643.635-5.364-10.113 2.417-17.635 11.509-17.635 22.364 0 12.703 10.297 23 23 23 10.855 0 19.947-7.522 22.365-17.636-1.722.412-3.517.636-5.365.636z"/><path d="m201 41c-12.703 0-23-10.297-23-23 0-1.848.224-3.643.636-5.364-10.114 2.417-17.636 11.509-17.636 22.364 0 12.703 10.297 23 23 23 10.855 0 19.947-7.522 22.364-17.636-1.721.412-3.516.636-5.364.636z"/><path d="m506 262c-12.703 0-23-10.297-23-23 0-1.848.224-3.643.635-5.364-10.113 2.417-17.635 11.509-17.635 22.364 0 12.703 10.297 23 23 23 10.855 0 19.947-7.522 22.365-17.636-1.722.412-3.517.636-5.365.636z"/><path d="m445 262c-12.703 0-23-10.297-23-23 0-1.848.224-3.643.635-5.364-10.113 2.417-17.635 11.509-17.635 22.364 0 12.703 10.297 23 23 23 10.855 0 19.947-7.522 22.365-17.636-1.722.412-3.517.636-5.365.636z"/><path d="m375 262c-12.703 0-23-10.297-23-23 0-1.848.224-3.643.635-5.364-10.113 2.417-17.635 11.509-17.635 22.364 0 12.703 10.297 23 23 23 10.855 0 19.947-7.522 22.365-17.636-1.722.412-3.517.636-5.365.636z"/><path d="m171 262c-12.703 0-23-10.297-23-23 0-1.848.224-3.643.636-5.364-10.114 2.417-17.636 11.509-17.636 22.364 0 12.703 10.297 23 23 23 10.855 0 19.947-7.522 22.364-17.636-1.721.412-3.516.636-5.364.636z"/><path d="m273 262c-12.703 0-23-10.297-23-23 0-1.848.224-3.643.635-5.364-10.113 2.417-17.635 11.509-17.635 22.364 0 12.703 10.297 23 23 23 10.855 0 19.947-7.522 22.365-17.636-1.722.412-3.517.636-5.365.636z"/><path d="m40 262c-12.703 0-23-10.297-23-23 0-1.848.224-3.643.636-5.364-10.114 2.417-17.636 11.509-17.636 22.364 0 12.703 10.297 23 23 23 10.855 0 19.947-7.522 22.364-17.636-1.721.412-3.516.636-5.364.636z"/><path d="m101 262c-12.703 0-23-10.297-23-23 0-1.848.224-3.643.636-5.364-10.114 2.417-17.636 11.509-17.636 22.364 0 12.703 10.297 23 23 23 10.855 0 19.947-7.522 22.364-17.636-1.721.412-3.516.636-5.364.636z"/></g></g><path d="m512 256c0-12.545-10.097-22.77-22.591-22.99l-31.011-95.333c5.809-4.179 9.602-10.991 9.602-18.677 0-12.682-10.317-23-23-23-5.073 0-9.764 1.654-13.571 4.446l-25.686-18.641c-3.354-2.434-8.042-1.688-10.476 1.665-2.433 3.353-1.688 8.042 1.665 10.475l25.933 18.821c-.395 1.401-.66 2.856-.782 4.351l-28.635 7.628c-3.864-6.105-12.353-11.53-21.267-10.665l-25.884-56.882 22.531 16.351c1.331.966 2.872 1.431 4.399 1.431 2.32 0 4.608-1.074 6.076-3.095 2.433-3.353 1.688-8.042-1.665-10.475l-27.554-19.997c.592-2.038.916-4.188.916-6.413 0-12.682-10.317-23-23-23-9.928 0-18.405 6.323-21.62 15.152h-100.76c-3.215-8.829-11.693-15.152-21.62-15.152-12.682 0-23 10.318-23 23 0 2.225.324 4.375.916 6.411l-80.85 58.675c-3.714-2.573-8.216-4.086-13.066-4.086-12.682 0-23 10.318-23 23 0 7.325 3.447 13.857 8.799 18.072l-31.208 95.938c-12.494.22-22.591 10.445-22.591 22.99s10.098 22.77 22.591 22.99l31.208 95.939c-5.352 4.214-8.799 10.746-8.799 18.071 0 12.682 10.318 23 23 23 4.85 0 9.352-1.513 13.066-4.087l25.525 18.524c1.331.966 2.872 1.431 4.399 1.431 2.321 0 4.609-1.074 6.076-3.095 2.433-3.353 1.688-8.042-1.665-10.475l-25.439-18.461c.52-1.668.849-3.419.974-5.225l27.337-7.282c4.111 5.599 12.273 10.583 21.071 9.551l26.358 57.922-21.968-15.943c-3.354-2.435-8.042-1.688-10.475 1.665s-1.688 8.042 1.665 10.475l26.992 19.589c-.592 2.036-.916 4.186-.916 6.411 0 12.682 10.318 23 23 23 9.927 0 18.405-6.323 21.62-15.152h100.76c3.215 8.829 11.692 15.152 21.62 15.152 12.683 0 23-10.318 23-23 0-2.225-.324-4.375-.916-6.411l81.345-59.035c3.807 2.792 8.498 4.446 13.571 4.446 12.683 0 23-10.318 23-23 0-7.686-3.793-14.499-9.602-18.677l31.011-95.333c12.494-.22 22.591-10.445 22.591-22.99zm-44.738-7.5h-17.524c-2.043-5.903-6.422-10.722-12.031-13.344l10.114-81.506 27.326 84.005c-3.605 2.728-6.379 6.492-7.885 10.845zm-309.542 115.52c-2.111-4.365-5.561-7.965-9.814-10.265l10.672-75.214c1.928-.391 3.769-1.025 5.49-1.867l71.261 71.251c-.817 1.67-1.438 3.452-1.832 5.318zm-70.671-232.145 27.05 7.205c.547 6.072 3.464 11.468 7.817 15.26l-33.296 73.453-10.913-87.949c3.785-1.77 7.015-4.538 9.342-7.969zm266.794 16.188c2.324 4.218 5.932 7.631 10.295 9.711l-10.828 75.709c-1.866.388-3.649 1.003-5.321 1.814l-71.312-71.232c.806-1.649 1.419-3.409 1.813-5.249zm74.157 115.937c-4.411 0-8-3.589-8-8s3.589-8 8-8 8 3.589 8 8-3.589 8-8 8zm-21.738-15.5h-26.524c-1.984-5.733-6.171-10.443-11.548-13.112l10.081-70.483 33.499 74.815c-2.453 2.445-4.352 5.44-5.508 8.78zm-52.91 115.38-74.85-10.639c-.393-1.861-1.011-3.64-1.826-5.306l71.312-71.232c1.705.828 3.527 1.451 5.434 1.838l10.604 74.736c-4.633 2.239-8.403 5.988-10.674 10.603zm-178.677-97.812c.405-.829.758-1.687 1.063-2.568h58.525c2.304 6.657 7.58 11.934 14.238 14.238v58.525c-.878.304-1.734.656-2.561 1.06zm-68.937-17.568c-1.214-3.51-3.255-6.635-5.89-9.145l33.85-74.675 10.112 70.708c-5.377 2.669-9.564 7.379-11.548 13.112zm-21.738-.5c4.411 0 8 3.589 8 8s-3.589 8-8 8-8-3.589-8-8 3.589-8 8-8zm149.485-89.298c.393 1.885 1.019 3.686 1.844 5.372l-23.001 22.998c-2.929 2.929-2.929 7.678 0 10.607 1.465 1.464 3.384 2.197 5.304 2.197 1.919 0 3.839-.732 5.303-2.196l23.004-23.002c.827.404 1.683.756 2.561 1.06v58.525c-6.657 2.304-11.934 7.581-14.238 14.238h-58.525c-.305-.881-.658-1.739-1.063-2.568l23.588-23.584c2.929-2.929 2.93-7.677.001-10.606-2.928-2.929-7.677-2.93-10.606-.001l-23.588 23.585c-1.688-.825-3.491-1.451-5.378-1.844l-10.895-76.181c3.996-2.134 7.293-5.41 9.448-9.393zm103.869 87.174c-.417.846-.78 1.723-1.092 2.624h-58.524c-2.304-6.657-7.58-11.934-14.238-14.238v-58.525c.882-.305 1.741-.659 2.571-1.065zm-71.283 91.451c-.83-.406-1.689-.76-2.571-1.065v-58.525c6.657-2.304 11.934-7.581 14.238-14.238h58.524c.312.901.675 1.777 1.092 2.624zm-10.071-89.327c4.411 0 8 3.589 8 8s-3.589 8-8 8-8-3.589-8-8 3.589-8 8-8zm102 16c-4.411 0-8-3.589-8-8s3.589-8 8-8 8 3.589 8 8-3.589 8-8 8zm-204 0c-4.411 0-8-3.589-8-8s3.589-8 8-8 8 3.589 8 8-3.589 8-8 8zm102-102c-4.411 0-8-3.589-8-8s3.589-8 8-8 8 3.589 8 8-3.589 8-8 8zm8-83c0 4.411-3.589 8-8 8s-8-3.589-8-8 3.589-8 8-8 8 3.589 8 8zm-23.859 16.634c2.365 2.256 5.207 4.013 8.359 5.104v31.525c-5.737 1.985-10.45 6.177-13.118 11.559l-72.254-10.229zm-103.141 33.366c4.411 0 8 3.589 8 8s-3.589 8-8 8-8-3.589-8-8 3.589-8 8-8zm-31.262 134.5h26.525c1.971 5.696 6.119 10.382 11.446 13.06l-10.033 70.709-33.827-74.625c2.634-2.509 4.674-5.634 5.889-9.144zm150.262 86.5c4.411 0 8 3.589 8 8s-3.589 8-8 8-8-3.589-8-8 3.589-8 8-8zm-8 83c0-4.411 3.589-8 8-8s8 3.589 8 8-3.589 8-8 8-8-3.589-8-8zm23.86-16.634c-2.365-2.256-5.207-4.013-8.36-5.104v-31.525c5.755-1.991 10.48-6.203 13.144-11.61l72.25 10.269zm102.14-34.366c-4.411 0-8-3.589-8-8s3.589-8 8-8 8 3.589 8 8-3.589 8-8 8zm-5.709-105.44c5.328-2.678 9.475-7.364 11.446-13.06h26.524c1.196 3.457 3.193 6.541 5.771 9.031l-33.718 74.669zm66.177-137.123-11.103 89.478-33.647-75.146c3.939-3.694 6.584-8.752 7.162-14.416l28.923-7.704c2.169 3.279 5.155 5.971 8.665 7.788zm-157.798 4.486c-2.659-5.432-7.397-9.663-13.17-11.661v-31.525c3.153-1.091 5.995-2.848 8.36-5.104l77.057 37.98zm-5.915-82.549c-3.997-3.351-9.143-5.374-14.755-5.374-5.601 0-10.738 2.014-14.731 5.354l-30.592-19.202h90.793zm-71.835-8.891 34.589 21.711c-.203 2.755-.845 1.532-.267 8.118l-79.343 39.107c-.208-.226-.419-.45-.636-.667l28.602-62.854c5.053.513 11.951-1.134 17.055-5.415zm-59.144 61.69c-7.398-1.036-17.458 2.837-22.078 10.343l-26.761-7.128c-.126-1.806-.454-3.557-.975-5.225l75.74-54.967zm-65.365 120.929c-5.665 2.61-10.092 7.453-12.149 13.398h-17.524c-1.506-4.352-4.28-8.117-7.884-10.845l27.416-84.282zm-29.673 28.398h17.525c2.043 5.903 6.423 10.722 12.032 13.345l-10.115 81.506-27.326-84.006c3.604-2.728 6.378-6.493 7.884-10.845zm32.851 108.602 10.933-88.111 33.068 72.95c-4.413 3.99-7.274 9.664-7.563 15.997l-26.978 7.186c-2.35-3.465-5.623-6.254-9.46-8.022zm157.768-3.972c2.664 5.406 7.389 9.617 13.143 11.608v31.525c-3.152 1.091-5.994 2.848-8.359 5.104l-77.021-37.963zm5.888 82.496c3.997 3.351 9.143 5.374 14.755 5.374 5.601 0 10.738-2.014 14.732-5.354l30.592 19.201h-90.794zm71.835 8.891-34.589-21.711c.331-1.551.509-3.158.509-4.806 0-1.125-.085-2.23-.242-3.312l79.332-39.102c.219.21.44.416.667.618l-28.622 62.899c-5.053-.514-11.952 1.133-17.055 5.414zm59.54-62.562c6.947.557 15.86-3.316 20.264-9.849l29.199 7.777c.122 1.495.387 2.95.782 4.351l-76.57 55.57zm73.104-55.135c-.514-4.11-4.261-7.029-8.373-6.512-4.109.514-7.025 4.262-6.512 8.372l3.612 28.892c-3.503 1.816-6.482 4.504-8.646 7.779l-28.845-7.683c-.338-5.895-2.907-11.201-6.874-15.087l33.279-73.698 3.131 25.047c.277 2.607 2.684 6.372 7.056 6.561 4.708.203 8.367-4.11 7.783-8.786l-3.727-29.815c5.656-2.612 10.076-7.452 12.131-13.39h17.524c1.506 4.353 4.28 8.117 7.884 10.845l-27.348 84.072zm51.276-85.82c0 4.411-3.589 8-8 8s-8-3.589-8-8 3.589-8 8-8 8 3.589 8 8zm-44-137c0 4.411-3.589 8-8 8s-8-3.589-8-8 3.589-8 8-8 8 3.589 8 8zm-71 18c0 4.411-3.589 8-8 8s-8-3.589-8-8 3.589-8 8-8 8 3.589 8 8zm-24.579-15.917-78.662-38.771c-.107-.925.742-.786-.26-8.088l34.648-21.683c3.454 2.867 10.244 6.118 16.989 5.357l28.299 62.188c-.349.321-.686.655-1.014.997zm-29.421-94.083c4.411 0 8 3.589 8 8s-3.589 8-8 8-8-3.589-8-8 3.589-8 8-8zm-144 0c4.411 0 8 3.589 8 8s-3.589 8-8 8-8-3.589-8-8 3.589-8 8-8zm-116 84c4.411 0 8 3.589 8 8s-3.589 8-8 8-8-3.589-8-8 3.589-8 8-8zm-53 145c0-4.411 3.589-8 8-8s8 3.589 8 8-3.589 8-8 8-8-3.589-8-8zm45 137c0-4.411 3.589-8 8-8s8 3.589 8 8-3.589 8-8 8-8-3.589-8-8zm69-19c0-4.411 3.589-8 8-8s8 3.589 8 8-3.589 8-8 8-8-3.589-8-8zm24.25 16.261 79.992 39.427c-.157 1.082-.242 2.187-.242 3.312 0 1.638.175 3.235.502 4.776l-34.648 21.684c-4.011-3.402-9.195-5.46-14.854-5.46-.72 0-1.432.038-2.135.103l-28.919-63.551c.1-.098.205-.191.304-.291zm30.75 94.739c-4.411 0-8-3.589-8-8s3.589-8 8-8 8 3.589 8 8-3.589 8-8 8zm144 0c-4.411 0-8-3.589-8-8s3.589-8 8-8 8 3.589 8 8-3.589 8-8 8zm117-84c-4.411 0-8-3.589-8-8s3.589-8 8-8 8 3.589 8 8-3.589 8-8 8z"/></g></svg>